<svg xmlns="http://www.w3.org/2000/svg" viewBox="0 0 2000 2000"><g data-name="Biceps arm muscle"><path fill="#e67925" d="M1780.79,1237.72c-6.22-92.32-73.57-150.93-102.92-176.49-151.61-132-373.11-97.79-417.75-90.81-233.09,36.42-374.54,196.47-417.76,249.74C817.15,1078.1,726.69,959.4,591.55,902.31L531.67,634.4H242.24c-149.8,383.17-117,798.43,91.32,1155.88,19.3,45.72,72.08,72,124.81,62.28l178.09-33c113,79.88,270.89,80.5,384.25-4.54,29.4,18.27,221.45,133.31,469.07,77.19,163.1-37,267.1-129.33,325.52-199.81,39.27-47.37,46-110.8,18.19-164.46l-84.22-162.46C1762.83,1341.87,1784.69,1295.66,1780.79,1237.72Z"/><path fill="#e67925" d="M227.84,732.78l12.51-305.26a152,152,0,0,1,50.32-106.89l224.82-202A102.1,102.1,0,0,1,622.35,100.1l236.28,96.58a36.9,36.9,0,0,1,22.43,26.75,74.17,74.17,0,0,1-2.37,38.63c-13.52,39.51-55.08,49.41-57.52,49.94,10.2-43,55.16-67.35,93.85-54.49,36,12,57.6,53.16,45.4,92.33q-32.53,82.5-65.08,165c-39.94,47.25-105.89,61.6-135.47,6.81A48.53,48.53,0,0,1,728.09,539C742,583.82,724.23,632,680,653.7l-63.57,4.54c-1.71,49.53-31.37,90.7-76.82,110.87Z"/><path fill="#68003c" d="M760.63,524.58a2,2,0,0,1-1.63-3.15c20.07-28.28,25-63.36,13.92-97a2,2,0,0,1,1.39-2.56,76.14,76.14,0,0,0,35.58-20.46c31-32.25,18.06-81.15,17.49-83.22a2,2,0,0,1,1.33-2.44c28.72-9.08,46.48-33.95,48.55-62.37a2,2,0,0,1,2.14-1.85,2,2,0,0,1,1.85,2.14c-2.2,30.12-20.85,55.44-49.55,65.31,2.27,9.75,10.61,54.51-18.92,85.21a79.83,79.83,0,0,1-35.43,21c10.67,34.5,5.18,70-15.09,98.55A2,2,0,0,1,760.63,524.58Z"/><path fill="#68003c" d="M728.09,541c-.67,0,13.17,6.07-302.78-134.88a2,2,0,1,1,1.63-3.65l302,134.7A2,2,0,0,1,728.09,541Z"/><path fill="#68003c" d="M776.52,426.39c-.67,0,12.09,5.65-280.08-126.18a2,2,0,1,1,1.65-3.65l279.26,126A2,2,0,0,1,776.52,426.39Z"/><path fill="#68003c" d="M829.88,319.3c-.67,0,11.41,5.28-269.86-120.12a2,2,0,0,1,1.63-3.66l269,120A2,2,0,0,1,829.88,319.3Z"/><path fill="#68003c" d="M616.46,660.24c-.73,0,1.37,1-26.36-14a38.21,38.21,0,0,1-10.54-58.77L394.32,509.1a2,2,0,0,1-1.07-2.62,2,2,0,0,1,2.62-1.07l187.88,79.47a2,2,0,0,1,.67,3.22c-17.74,18.68-11,44.54,7.59,54.6l25.4,13.78A2,2,0,0,1,616.46,660.24Z"/><path fill="#68003c" d="M430.06,784.07a250.33,250.33,0,0,1-35.25-2.38,2,2,0,0,1-1.69-2.26,2,2,0,0,1,2.26-1.7c78.06,11.14,162.43-20.94,163.27-21.27a2,2,0,0,1,1.44,3.74C559.36,760.47,497.3,784.07,430.06,784.07Z"/><path fill="#68003c" d="M776.52,1627.8a2,2,0,0,1-1.72-3c93.18-158,65.87-402,65.58-404.39a2,2,0,0,1,4-.47c.29,2.46,27.75,247.71-66.11,406.89A2,2,0,0,1,776.52,1627.8Z"/><path fill="#68003c" d="M1138.05,1520a225.19,225.19,0,0,1-37.19-3.06,2,2,0,0,1,.66-3.94c118,19.73,219.87-64.25,220.88-65.1a1.78,1.78,0,0,1,1.38-.46c226.12,11.18,422.66-82.86,424.62-83.81a2,2,0,0,1,1.75,3.6c-2,1-198.93,95.18-425.8,84.24C1316.56,1457.79,1236.65,1520,1138.05,1520Z"/></g></svg>